<svg width="140" height="140" viewBox="0 0 140 140" fill="none" xmlns="http://www.w3.org/2000/svg">
<g clip-path="url(#clip0_731_15063)">
<g clip-path="url(#clip1_731_15063)">
<path d="M94.7855 127.428H45.1971C42.7436 127.428 40.7559 129.417 40.7559 131.869C40.7559 134.322 42.7436 136.311 45.1971 136.311H94.7855C97.2379 136.311 99.2267 134.322 99.2267 131.869C99.2267 129.417 97.2379 127.428 94.7855 127.428Z" fill="#1C9262"/>
<path d="M94.784 127.428H88.2728C88.2802 127.541 88.2899 127.653 88.2899 127.768C88.2899 130.222 86.301 132.21 83.8476 132.21H40.7715C40.9456 134.503 42.8575 136.311 45.1956 136.311H94.784C97.2364 136.311 99.2252 134.322 99.2252 131.869C99.2252 129.417 97.2364 127.428 94.784 127.428Z" fill="#12553A"/>
<path d="M135.451 45.6925C134.743 43.1483 131.447 42.5031 129.842 44.6009C113.807 65.5766 88.5308 79.1096 60.089 79.1096C40.2135 79.1096 21.8836 72.5001 7.17133 61.3607C5.07676 59.7746 2.05292 61.2368 2.05078 63.8644V63.9295C2.05078 92.9268 20.2194 117.676 45.7912 127.428H94.2848C119.726 117.748 137.753 93.2696 137.929 64.3504C137.969 57.8829 137.101 51.6248 135.451 45.6925Z" fill="#3BCD92"/>
<path d="M135.451 45.6938C134.742 43.1474 131.442 42.5119 129.835 44.6118C128.71 46.0826 127.539 47.516 126.324 48.912C126.783 52.1677 127.013 55.4959 126.993 58.8829C126.991 59.2845 126.985 59.6861 126.976 60.0856C126.174 94.5804 97.6036 121.962 63.0992 121.962H34.856C34.667 121.889 34.479 121.813 34.291 121.739C37.913 123.98 41.7604 125.892 45.7914 127.429H94.285C119.726 117.749 137.753 93.2709 137.929 64.3517C137.969 57.8842 137.101 51.6261 135.451 45.6938Z" fill="#1D6649"/>
<path d="M123.299 26.2953L109.872 18.5429C106.945 16.8531 105.942 13.1094 107.631 10.1828C109.322 7.25505 113.065 6.25209 115.993 7.94185L129.42 15.6942C132.348 17.3851 133.35 21.1277 131.661 24.0555C129.97 26.9832 126.227 27.9861 123.299 26.2953Z" fill="#3BCD92"/>
<path d="M129.42 15.6941L115.992 7.94172C113.678 6.60551 110.854 6.95371 108.938 8.60395L121.218 15.6941C124.144 17.3839 125.147 21.1276 123.457 24.0543C123.104 24.6674 122.659 25.195 122.151 25.6319L123.299 26.2941C126.226 27.9849 129.97 26.982 131.66 24.0543C133.349 21.1276 132.347 17.3839 129.42 15.6941Z" fill="#1D6649"/>
<path d="M60.2414 12.6182C65.9217 6.93801 75.0338 6.84294 80.5944 12.4046C86.156 17.9652 86.0599 27.0784 80.3807 32.7565C74.7016 38.4368 56.5468 44.8529 52.3459 40.652C48.1461 36.4522 54.5633 18.2974 60.2414 12.6182Z" fill="#76D084"/>
<path d="M99.7744 69.6406L122.864 26.0433L110.307 18.793L73.0801 78.1535C82.5575 76.7468 91.5403 73.8245 99.7744 69.6406Z" fill="#3BCD92"/>
<path d="M114.365 21.1367L96.8927 54.1276C93.0271 61.4261 86.4881 66.9771 78.6215 69.4914C78.5755 69.5053 78.5307 69.5203 78.4858 69.5341L73.0801 78.1538C82.5575 76.7471 91.5403 73.8248 99.7744 69.6399L122.864 26.0436L114.365 21.1367Z" fill="#1D6649"/>
<path d="M60.0881 79.11C62.0652 79.11 64.0263 79.0427 65.9713 78.9135C64.43 69.5109 58.9965 57.2767 53.9881 52.2683C46.366 44.6462 34.1361 44.518 26.6732 51.982C21.7353 56.9188 20.1235 63.9406 21.8015 70.3354C33.3713 75.9559 46.3607 79.11 60.0881 79.11Z" fill="#76D084"/>
<path d="M80.5928 12.4045C77.9107 9.72138 74.402 8.35953 70.8505 8.30078C75.1657 13.8998 74.6797 22.0528 69.4438 27.2887C65.9574 30.775 57.7693 34.5391 50.9942 35.9543C50.9878 38.0318 51.3937 39.7013 52.3454 40.653C56.5452 44.8528 74.7 38.4366 80.3802 32.7574C86.0583 27.0783 86.1545 17.9651 80.5928 12.4045Z" fill="#5BB268"/>
<path d="M53.9891 52.2681C50.8617 49.1406 46.9577 47.2768 42.9267 46.6797C42.9683 46.7213 43.0121 46.7587 43.0527 46.8004C47.0784 50.825 51.3787 59.5195 53.7114 67.6585C54.5681 70.645 52.3197 73.64 49.2125 73.6421C49.1933 73.6421 49.173 73.6421 49.1538 73.6421C39.5065 73.6421 30.2246 72.0816 21.543 69.2052C21.6188 69.5833 21.7043 69.9603 21.8025 70.3352C33.3724 75.9557 46.3617 79.1098 60.0902 79.1098C62.0673 79.1098 64.0284 79.0415 65.9723 78.9133C64.431 69.5107 58.9965 57.2754 53.9891 52.2681Z" fill="#5BB368"/>
<path d="M137.426 45.142C136.266 40.971 130.845 39.9125 128.213 43.355C121.635 51.9608 113.69 59.0905 104.795 64.5422L110.894 53.0279C111.424 52.027 111.041 50.7859 110.042 50.2561C109.041 49.7263 107.8 50.1076 107.269 51.1085L98.2282 68.177C91.6166 71.4625 84.5767 73.8786 77.2558 75.3547L110.994 21.558L120.129 26.8312L111.747 42.6543C111.218 43.6552 111.599 44.8963 112.6 45.4261C113.602 45.9569 114.842 45.5746 115.372 44.5737L123.758 28.74C127.363 29.9523 131.458 28.505 133.437 25.0795C135.689 21.1777 134.348 16.1704 130.446 13.9177L117.017 6.16534C113.116 3.91268 108.109 5.25423 105.857 9.15606C103.881 12.5783 104.67 16.8508 107.527 19.3694L71.8436 76.2647C70.4551 76.4538 69.058 76.6108 67.6524 76.7326C65.671 67.0704 60.3998 55.7804 55.4384 50.8179C53.5084 48.8879 51.2792 47.3572 48.8151 46.2688C47.779 45.8117 46.5688 46.2806 46.1116 47.3167C45.6534 48.3527 46.1234 49.564 47.1595 50.0211C49.1579 50.9034 50.9684 52.1477 52.5385 53.7179C56.7693 57.9487 61.6089 68.3543 63.5113 76.9911C60.5953 77.1043 57.6719 77.0818 54.4697 76.8768L52.4712 74.8794H55.2302C56.3624 74.8794 57.2809 73.9608 57.2809 72.8286C57.2809 71.6964 56.3624 70.7778 55.2302 70.7778H48.3707L41.429 63.8361H48.9005C50.0338 63.8361 50.9513 62.9186 50.9513 61.7864C50.9513 60.6532 50.0338 59.7356 48.9005 59.7356H37.3275L29.6616 52.0698C32.1706 50.1012 35.157 48.9081 38.4095 48.5952C39.5374 48.4873 40.363 47.4854 40.2541 46.3575C40.1462 45.2306 39.1465 44.405 38.0175 44.5128C33.87 44.9123 29.9393 46.5444 26.7488 49.1559L16.4287 38.8369C15.6276 38.0358 14.3298 38.0358 13.5288 38.8369C12.7287 39.638 12.7287 40.9357 13.5288 41.7368L23.8468 52.0537C20.5089 56.1393 18.8469 61.388 19.1567 66.6773C15.4386 64.6458 11.8465 62.329 8.40928 59.726C5.00412 57.1476 0 59.4718 0 63.9291C0 91.8603 16.4116 116.228 40.4848 127.409C39.3825 128.574 38.7043 130.143 38.7043 131.869C38.7043 135.449 41.6159 138.361 45.1963 138.361H94.7846C98.3639 138.361 101.277 135.449 101.277 131.869C101.277 130.16 100.611 128.602 99.5271 127.442C130.751 112.999 146.569 77.9972 137.426 45.142ZM109.408 11.2068C110.53 9.26287 113.024 8.5953 114.968 9.71682L128.395 17.4692C130.343 18.5939 131.01 21.0805 129.885 23.0288C128.76 24.9759 126.274 25.6435 124.326 24.5188C122.47 23.4475 127.637 26.4296 110.897 16.7664C108.954 15.6438 108.286 13.1497 109.408 11.2068ZM34.1263 73.0732V62.3333L40.1184 68.3254V74.732C38.0986 74.2513 36.1002 73.6991 34.1263 73.0732ZM44.22 72.427L48.014 76.222C46.7429 76.0436 45.4772 75.8364 44.22 75.6025V72.427ZM26.7617 54.9686L30.0258 58.2328V71.6547C27.8426 70.8366 25.6935 69.9287 23.5808 68.93C22.5308 63.9227 23.693 58.8822 26.7617 54.9686ZM93.8981 125.377H59.3307C58.1985 125.377 57.2799 126.295 57.2799 127.428C57.2799 128.56 58.1985 129.478 59.3307 129.478H94.7846C96.1027 129.478 97.1751 130.551 97.1751 131.869C97.1751 133.188 96.1027 134.26 94.7846 134.26H45.1963C43.8782 134.26 42.8048 133.188 42.8048 131.869C42.8048 130.551 43.8771 129.478 45.1963 129.478H49.7614C50.8947 129.478 51.8122 128.56 51.8122 127.428C51.8122 126.295 50.8947 125.377 49.7614 125.377H46.1789C21.4542 115.787 4.1005 91.4715 4.1005 63.866C4.10157 62.9272 5.18677 62.4305 5.93339 62.9955C45.0745 92.6304 101.25 85.38 131.471 45.8459C132.049 45.0907 133.221 45.3268 133.475 46.2421C142.37 78.2066 126.329 112.834 93.8981 125.377Z" fill="black"/>
<path d="M57.0262 44.0467C64.6386 44.0467 77.0234 39.0137 81.83 34.2072C87.7997 28.2386 88.338 18.899 83.3969 12.501L90.7573 5.14057C91.5584 4.33949 91.5584 3.04173 90.7573 2.24064C89.9573 1.44062 88.6584 1.44062 87.8573 2.24064L80.497 9.60103C74.0979 4.66099 64.7593 5.19932 58.7907 11.168C55.8117 14.148 52.6074 20.1989 50.6292 26.583C49.2823 30.9324 47.5242 38.7318 50.8952 42.1027C52.3361 43.5426 54.5834 44.0467 57.0262 44.0467ZM54.5471 27.7975C56.3159 22.0894 59.1859 16.5726 61.6906 14.0679C66.0624 9.69609 72.7948 9.17805 77.566 12.5319L75.7438 14.3541H64.2114C63.0792 14.3541 62.1617 15.2727 62.1617 16.4049C62.1617 17.5371 63.0792 18.4546 64.2114 18.4546H71.6433L68.1987 21.8993H61.9064C60.7731 21.8993 59.8556 22.8179 59.8556 23.9501C59.8556 25.0823 60.7731 26.0009 61.9064 26.0009H64.0982L57.0849 33.0131C55.7893 34.3087 56.725 36.5133 58.5354 36.5133C59.0599 36.5133 59.5843 36.3135 59.9849 35.913L64.2007 31.6971V32.4908C64.2007 33.623 65.1193 34.5405 66.2515 34.5405C67.3837 34.5405 68.3023 33.623 68.3023 32.4908V27.5956L71.2375 24.6604V28.966C71.2375 30.0982 72.156 31.0157 73.2882 31.0157C74.4215 31.0157 75.339 30.0982 75.339 28.966V20.5588C78.742 17.1558 77.0886 18.8093 80.466 15.4319C83.822 20.2053 83.2943 26.943 78.93 31.3073C76.4253 33.812 70.9085 36.6831 65.2015 38.4508C58.8238 40.4269 54.8184 40.2261 53.7951 39.2028C52.7719 38.1795 52.5711 34.1741 54.5471 27.7975Z" fill="black"/>
</g>
</g>
<defs>
<clipPath id="clip0_731_15063">
<rect width="140" height="140" fill="white"/>
</clipPath>
<clipPath id="clip1_731_15063">
<rect width="140" height="140" fill="white"/>
</clipPath>
</defs>
</svg>
