<svg width="160" height="160" viewBox="0 0 160 160" fill="none" xmlns="http://www.w3.org/2000/svg">
<g clip-path="url(#clip0_731_10759)">
<path d="M90.5357 157.653H69.4641C68.5994 157.653 67.8984 156.952 67.8984 156.088V147.529C67.8984 146.664 68.5994 145.963 69.4641 145.963H90.5357C91.4004 145.963 92.1013 146.664 92.1013 147.529V156.088C92.1016 156.952 91.4007 157.653 90.5357 157.653Z" fill="#FFDBA9"/>
<path d="M95.0043 123.192H64.9967C64.1767 123.192 63.5117 122.527 63.5117 121.707V112.469C63.5117 111.649 64.1764 110.984 64.9967 110.984H95.0043C95.8243 110.984 96.4893 111.649 96.4893 112.469V121.707C96.489 122.527 95.8243 123.192 95.0043 123.192Z" fill="#FFDBA9"/>
<path d="M95.0044 123.192H88.2656V110.984H95.0044C95.8244 110.984 96.4894 111.649 96.4894 112.469V121.707C96.4891 122.527 95.8244 123.192 95.0044 123.192Z" fill="#FFC473"/>
<path d="M90.536 157.651H84.6973V145.961H90.5363C91.401 145.961 92.102 146.662 92.102 147.527V156.086C92.102 156.95 91.401 157.651 90.536 157.651Z" fill="#FFC473"/>
<path d="M91.2625 110.985L98.3306 38.4753C98.3597 38.1756 98.3022 37.8741 98.1644 37.6066L80 2.3418V110.985H91.2625V110.985Z" fill="#5391EF"/>
<path d="M98.3303 38.4734L91.2631 110.984H84.0862L91.1534 38.4734C91.1847 38.1759 91.1253 37.8722 90.9875 37.6062L80 16.2762V2.3418L98.1644 37.6056C98.3019 37.8722 98.3584 38.1759 98.3303 38.4734Z" fill="#2D5288"/>
<path d="M68.7376 110.985L61.6695 38.4753C61.6404 38.1756 61.6979 37.8741 61.8357 37.6065L79.9998 2.3418V110.985H68.7376V110.985Z" fill="#5391EF"/>
<path d="M88.4474 123.191H71.5527V145.961H88.4474V123.191Z" fill="#B76035"/>
<path d="M88.4472 123.191H80V145.961H88.4472V123.191Z" fill="#A04C27"/>
<path d="M100.253 36.5304L82.0888 1.26565C82.0841 1.25628 82.0772 1.24846 82.0722 1.2394C82.0376 1.1744 81.9957 1.1144 81.9551 1.05284C81.9232 1.0044 81.8944 0.953777 81.8594 0.908152C81.8176 0.854089 81.7691 0.805964 81.7229 0.755339C81.6816 0.710651 81.6432 0.662839 81.5991 0.621901C81.5488 0.575026 81.4922 0.535338 81.4382 0.493151C81.3913 0.456588 81.3469 0.416901 81.2972 0.384401C81.2404 0.346588 81.1782 0.316588 81.1176 0.283775C81.0644 0.254713 81.0129 0.222838 80.9576 0.19815C80.9007 0.172838 80.8397 0.155025 80.7804 0.134088C80.7154 0.111275 80.6519 0.0859625 80.5851 0.068775C80.5744 0.0659625 80.5647 0.0609625 80.5541 0.0584625C80.5044 0.0465875 80.4544 0.0440875 80.4047 0.0356499C80.3354 0.0234624 80.2669 0.00971239 80.1963 0.00377487C80.1326 -0.00153764 80.0694 0.000649868 80.006 0.000649868C79.9388 0.000337368 79.8719 -0.00185014 79.8041 0.00408738C79.7379 0.00971239 79.6735 0.0231499 79.6082 0.0340874C79.5547 0.0431499 79.5013 0.0459625 79.4479 0.058775C79.4363 0.0615875 79.4263 0.0669 79.4147 0.070025C79.3541 0.08565 79.2963 0.109088 79.2372 0.1294C79.1716 0.1519 79.105 0.171588 79.0425 0.199713C78.9944 0.221275 78.9497 0.249713 78.9032 0.2744C78.8357 0.310338 78.7666 0.344088 78.7035 0.385963C78.6594 0.415026 78.6204 0.450651 78.5782 0.482838C78.5185 0.528463 78.4572 0.572213 78.4022 0.623151C78.36 0.662214 78.3235 0.707839 78.2841 0.750339C78.236 0.802526 78.1857 0.852527 78.1425 0.908464C78.1079 0.953464 78.0794 1.00378 78.0475 1.0519C78.0069 1.11346 77.9647 1.17378 77.9297 1.2394C77.9247 1.24878 77.9179 1.25628 77.9132 1.26565L59.7494 36.5295C59.4038 37.2004 59.2597 37.952 59.3331 38.702L66.1503 108.635H64.9969C62.8834 108.635 61.1634 110.355 61.1634 112.469V121.706C61.1634 123.82 62.8831 125.54 64.9969 125.54H69.2057V127.069C69.2057 128.366 70.2569 129.418 71.5541 129.418C72.8513 129.418 73.9025 128.367 73.9025 127.069V125.54H86.0998V143.613H73.9025V141.682C73.9025 140.385 72.8513 139.333 71.5541 139.333C70.2569 139.333 69.2057 140.385 69.2057 141.682V143.626C67.1688 143.761 65.551 145.456 65.551 147.527V156.086C65.551 158.244 67.3066 160 69.465 160H90.5366C92.6948 160 94.4507 158.244 94.4507 156.086V147.527C94.4507 145.456 92.8335 143.76 90.796 143.626V125.54H95.0048C97.1182 125.54 98.8382 123.82 98.8382 121.706V112.469C98.8382 110.355 97.1185 108.635 95.0048 108.635H93.8516L97.6676 69.493C97.7932 68.202 96.8492 67.0539 95.5582 66.928C94.2641 66.7986 93.1188 67.7464 92.9932 69.0373L89.1323 108.636H82.3494V12.0291L95.9716 38.476L94.3973 54.6283C94.2716 55.9192 95.2157 57.0676 96.5067 57.1933C97.7948 57.3179 98.9457 56.3745 99.0717 55.0839L100.668 38.7035C100.742 37.9523 100.598 37.2007 100.253 36.5304ZM89.7541 155.303H70.2478V148.31H71.5538H88.4479H89.7538V155.303H89.7541ZM91.2632 113.333H94.1413V120.843H88.4479H71.5541H65.8606V113.333H68.7388H80.001H91.2632ZM70.8694 108.636L64.0303 38.476L77.6525 12.0291V108.636H70.8694V108.636Z" fill="black"/>
</g>
<defs>
<clipPath id="clip0_731_10759">
<rect width="160" height="160" fill="white"/>
</clipPath>
</defs>
</svg>
