<svg width="140" height="140" viewBox="0 0 140 140" fill="none" xmlns="http://www.w3.org/2000/svg">
<g clip-path="url(#clip0_731_3085)">
<path d="M137.922 102.436C137.922 117.287 107.513 129.327 70.0009 129.327C62.0277 129.327 54.3764 128.784 47.2681 127.783C20.9371 124.081 2.08008 114.129 2.08008 102.436C2.08008 91.8927 17.4024 82.7692 39.7111 78.3584L61.5123 78.1976L97.9899 77.9258C121.538 82.1485 137.922 91.535 137.922 102.436Z" fill="#533466"/>
<path d="M47.2681 127.782C20.9371 124.081 2.08008 114.129 2.08008 102.435C2.08008 91.8924 17.4024 82.7689 39.7111 78.358L61.5123 78.1973L43.9693 102.238C43.9691 102.238 29.6754 110.187 47.2681 127.782Z" fill="#925CB4"/>
<path d="M105.635 102.436C105.635 110.229 89.6805 116.544 70.0002 116.544C60.8405 116.544 52.4906 115.178 46.178 112.929C38.9256 110.346 34.3652 106.603 34.3652 102.436L41.7229 86.0797L38.3962 73.3271L56.6933 55.03V37.842L92.1784 10.6738L82.7527 38.9511L88.2972 51.1491L84.9706 66.6738L101.327 80.8125L105.635 102.436Z" fill="#925CB4"/>
<path d="M92.1784 10.6738L68.9162 41.1134V52.3383L53.1143 76.873L57.6886 88.1007L46.178 112.929C38.9256 110.345 34.3652 106.603 34.3652 102.436L41.7229 86.0794L38.3962 73.3268L56.6933 55.0298V37.8418L92.1784 10.6738Z" fill="#B27DD2"/>
<path d="M113.76 120.807C101.643 124.96 86.1025 127.247 70 127.247C52.1136 127.247 35.3289 124.502 22.7382 119.517C10.9307 114.842 4.15844 108.616 4.15844 102.435C4.15844 94.68 14.8895 86.9466 32.1634 82.2522C33.2713 81.9512 33.9257 80.8088 33.6246 79.7005C33.3238 78.5925 32.1817 77.9382 31.0729 78.2393C21.9089 80.7297 14.251 84.1146 8.92773 88.0281C3.08711 92.3221 0 97.3042 0 102.435C0 110.53 7.53156 117.969 21.2073 123.383C34.2738 128.557 51.602 131.406 70 131.406C86.5493 131.406 102.569 129.039 115.108 124.741C116.194 124.368 116.773 123.186 116.401 122.1C116.029 121.014 114.846 120.435 113.76 120.807Z" fill="black"/>
<path d="M120.027 81.9885C118.967 81.5469 117.75 82.0484 117.309 83.1088C116.867 84.1689 117.369 85.386 118.429 85.8276C129.495 90.4353 135.842 96.4886 135.842 102.435C135.842 107.839 130.728 113.26 121.442 117.699C120.406 118.195 119.968 119.436 120.463 120.472C120.82 121.219 121.564 121.655 122.34 121.655C122.641 121.655 122.946 121.59 123.235 121.451C134.203 116.208 140.001 109.632 140.001 102.435C140.001 94.6131 132.907 87.3515 120.027 81.9885Z" fill="black"/>
<path d="M36.3851 73.8515L39.5269 85.8946L37.1398 91.2017C36.6687 92.2487 37.1357 93.4797 38.183 93.9508C39.23 94.4217 40.461 93.9549 40.9321 92.9077L43.62 86.932C43.8147 86.4991 43.8554 86.0132 43.7357 85.5541L40.7095 73.9544L52.5215 62.1424C52.522 62.1419 52.5223 62.1416 52.5229 62.141L63.958 50.7059C64.7701 49.8938 64.7701 48.5774 63.958 47.7656C63.1459 46.9535 61.8296 46.9535 61.0177 47.7656L58.7734 50.0097V38.868L88.0651 16.442L80.7815 38.2929C80.6155 38.7908 80.644 39.3331 80.8611 39.8108L86.1218 51.384L84.7822 57.6351C84.7819 57.6364 84.7814 57.6378 84.7811 57.6392L81.6839 72.0936C81.4435 73.2164 82.1588 74.3216 83.2816 74.5622C83.4281 74.5939 83.575 74.6087 83.7193 74.6087C84.6786 74.6087 85.541 73.9407 85.7504 72.9648L86.2694 70.5429L99.4289 81.9185L103.551 102.617C103.263 108.26 89.5657 114.465 70.0007 114.465C50.6848 114.465 37.0879 108.416 36.4677 102.832L37.9374 99.5651C38.4086 98.5178 37.9415 97.2871 36.8943 96.8159C35.847 96.3448 34.6163 96.8118 34.1451 97.8591L32.47 101.583C32.3495 101.851 32.2871 102.142 32.2871 102.436C32.2871 107.115 36.4603 111.345 44.0381 114.345C51.0061 117.104 60.2267 118.623 70.0007 118.623C79.7747 118.623 88.9953 117.104 95.9633 114.345C103.541 111.345 107.715 107.115 107.715 102.436C107.715 102.299 107.701 102.164 107.674 102.03L103.368 80.4064C103.277 79.9525 103.039 79.542 102.688 79.2396L87.2634 65.9057L87.9396 62.75L90.3324 51.5844C90.4257 51.1486 90.3764 50.6944 90.1922 50.2883L84.9856 38.8335L94.1529 11.3309C94.4416 10.4646 94.1313 9.51088 93.3878 8.98041C92.6441 8.44994 91.6416 8.46662 90.9162 9.02225L55.4311 36.1905C54.9171 36.5839 54.6157 37.1942 54.6157 37.8415V54.1684L36.9279 71.8563C36.4048 72.3783 36.1989 73.1376 36.3851 73.8515Z" fill="black"/>
</g>
<defs>
<clipPath id="clip0_731_3085">
<rect width="140" height="140" fill="white"/>
</clipPath>
</defs>
</svg>
