<svg width="140" height="140" viewBox="0 0 140 140" fill="none" xmlns="http://www.w3.org/2000/svg">
<g clip-path="url(#clip0_731_9308)">
<path d="M115.034 32.3173L107.621 24.9044C106.678 23.9616 105.149 23.9616 104.207 24.9044L99.1973 29.9137L110.025 40.7413L115.034 35.7319C115.977 34.7889 115.977 33.2603 115.034 32.3173Z" fill="#EFEACE"/>
<path d="M11.1923 136.693L3.2457 128.746C1.6707 127.171 1.6707 124.617 3.2457 123.042L63.9852 62.3027L77.6355 75.953L16.896 136.693C15.321 138.268 12.7673 138.268 11.1923 136.693Z" fill="#EFEACE"/>
<path d="M63.9851 62.3008L58.3432 67.9426C63.3176 72.917 63.3176 80.982 58.3432 85.9561L9.40039 134.899L11.192 136.691C12.767 138.266 15.3206 138.266 16.8956 136.691L77.6351 75.9516L63.9851 62.3008Z" fill="#D8D3B6"/>
<path d="M115.034 32.316L113.16 30.4418C111.2 32.4016 108.023 32.4016 106.064 30.4418L102.366 26.7441L99.1973 29.9125L110.025 40.74L115.034 35.7307C115.977 34.7876 115.977 33.2591 115.034 32.316Z" fill="#D8D3B6"/>
<path d="M41.5496 40.5203L99.416 98.3867L133.895 63.9074L76.0289 6.04099L41.5496 40.5203Z" fill="#B66140"/>
<path d="M105.535 101.925L99.416 98.3873L133.895 63.9082L137.519 69.8519C138.194 70.9588 138.023 72.3837 137.106 73.3005L108.927 101.48C108.028 102.379 106.636 102.562 105.535 101.925Z" fill="#7C381D"/>
<path d="M69.91 2.50234L76.0287 6.04034L41.5496 40.5194L37.9263 34.5757C37.2514 33.4689 37.4218 32.044 38.3386 31.1271L66.5177 2.94777C67.417 2.04843 68.8088 1.8655 69.91 2.50234Z" fill="#CE886B"/>
<path d="M34.9628 118.625L21.3125 104.975L3.2457 123.041C1.6707 124.616 1.6707 127.17 3.2457 128.745L11.1923 136.692C12.7673 138.267 15.321 138.267 16.896 136.692L34.9628 118.625Z" fill="#F5D4A6"/>
<path d="M14.0442 137.874C15.0764 137.874 16.1084 137.48 16.8959 136.693L25.4679 128.121L34.9627 118.626L30.3192 113.982L9.40039 134.901L10.4611 135.962L11.1922 136.693C11.9797 137.48 13.012 137.874 14.0442 137.874Z" fill="#D1AE7E"/>
<path d="M139.284 68.7763L135.66 62.8326C135.576 62.6939 135.471 62.5624 135.357 62.447L113.298 40.3883L116.494 37.1929C117.34 36.3466 117.806 35.2214 117.806 34.0245C117.806 32.8277 117.34 31.7025 116.494 30.8562L109.081 23.4433C107.334 21.6961 104.491 21.6961 102.744 23.4433L99.549 26.6387L77.4902 4.57997C77.3647 4.45446 77.2168 4.34126 77.0634 4.25239L70.9447 0.713834C69.0374 -0.389213 66.6161 -0.0717518 65.0567 1.48712L36.8774 29.6662C35.281 31.2626 34.9871 33.7238 36.162 35.6512L39.7856 41.5949C39.8699 41.7336 39.9749 41.8651 40.0889 41.9805L60.7361 62.6278L59.4699 63.894C58.6629 64.701 58.6629 66.0094 59.4701 66.816C60.2768 67.6232 61.5852 67.6229 62.3921 66.816L63.6581 65.5497L74.3864 76.278L34.9619 115.703L24.2336 104.975L55.7128 73.5275C56.5197 72.7206 56.5197 71.4122 55.7128 70.6056C54.9056 69.7987 53.5975 69.7987 52.7906 70.6056L1.78356 121.581C-0.594521 123.959 -0.594521 127.828 1.78356 130.206L9.7302 138.153C10.8822 139.305 12.414 139.94 14.0431 139.94C15.6723 139.94 17.2041 139.305 18.3561 138.153L77.3084 79.2008L97.9556 99.8481C98.0811 99.9736 98.2291 100.087 98.3825 100.176L104.501 103.714C105.261 104.153 106.102 104.367 106.938 104.367C108.2 104.367 109.451 103.878 110.389 102.94L138.568 74.761C140.165 73.1649 140.459 70.7037 139.284 68.7763ZM15.4338 135.231C15.0625 135.603 14.5687 135.807 14.0431 135.807C13.5176 135.807 13.0238 135.603 12.6524 135.231L4.70579 127.284C4.33419 126.913 4.12938 126.419 4.12938 125.894C4.12938 125.368 4.33419 124.874 4.70579 124.503L21.3114 107.897L32.0397 118.625L15.4338 135.231ZM61.3825 57.4305L85.3611 54.5758L82.5064 78.5544L61.3825 57.4305ZM57.6638 53.7115L44.4721 40.5198L76.029 8.96262L89.2207 22.1543L85.8634 50.3545L57.6638 53.7115ZM92.9397 25.8734L98.0874 31.0214V31.0217L99.792 32.7263L114.063 46.9975L90.0847 49.8522L92.9397 25.8734ZM105.667 26.365C105.751 26.2808 105.847 26.263 105.913 26.263C105.979 26.263 106.075 26.2805 106.159 26.365L113.572 33.7779C113.656 33.8621 113.674 33.9584 113.674 34.0243C113.674 34.0902 113.656 34.1861 113.572 34.2704L110.377 37.4658L106.424 33.5129L102.471 29.5601L105.667 26.365ZM39.7999 32.5885L67.9787 4.40934C68.1217 4.26634 68.3123 4.19169 68.5051 4.19169C68.6322 4.19169 68.7604 4.2245 68.8764 4.29122L72.6651 6.482L41.9463 37.2011L39.6908 33.5006C39.5117 33.2067 39.5565 32.8315 39.7999 32.5885ZM135.646 71.8391L107.467 100.018C107.23 100.256 106.861 100.304 106.57 100.136L102.781 97.945L123.807 76.919C124.614 76.1121 124.614 74.8037 123.807 73.997C123 73.1901 121.692 73.1901 120.885 73.997L99.4174 95.4646L86.2257 82.2729L89.5827 54.073L117.783 50.716L130.974 63.9077L127.83 67.0525C127.023 67.8594 127.023 69.1678 127.83 69.9745C128.636 70.7814 129.945 70.7814 130.752 69.9745L133.5 67.2264L135.755 70.9269C135.934 71.2208 135.89 71.596 135.646 71.8391Z" fill="black"/>
</g>
<defs>
<clipPath id="clip0_731_9308">
<rect width="140" height="140" fill="white"/>
</clipPath>
</defs>
</svg>
